<svg width="30" height="30" viewBox="0 0 30 30" fill="none" xmlns="http://www.w3.org/2000/svg">
<g clip-path="url(#clip0)">
<path d="M19.8912 15.978H0.978261C0.438259 15.978 0 15.5397 0 14.9997C0 14.4597 0.438259 14.0215 0.978261 14.0215H19.8912C20.4312 14.0215 20.8695 14.4597 20.8695 14.9997C20.8695 15.5397 20.4312 15.978 19.8912 15.978Z" fill="black"/>
<path d="M14.6739 21.1953C14.4234 21.1953 14.1731 21.1002 13.9825 20.9085C13.6004 20.5263 13.6004 19.9068 13.9825 19.5244L18.5086 14.9985L13.9825 10.4724C13.6004 10.0903 13.6004 9.47049 13.9825 9.08836C14.3649 8.70622 14.9844 8.70622 15.3666 9.08836L20.5839 14.3059C20.966 14.688 20.966 15.3076 20.5839 15.6897L15.3666 20.907C15.1748 21.1002 14.9245 21.1953 14.6739 21.1953Z" fill="black"/>
</g>
<defs>
<clipPath id="clip0">
<rect width="30" height="30" fill="white"/>
</clipPath>
</defs>
</svg>
