<svg width="42" height="47" viewBox="0 0 42 47" fill="none" xmlns="http://www.w3.org/2000/svg">
<mask id="mask0" mask-type="alpha" maskUnits="userSpaceOnUse" x="0" y="0" width="42" height="47">
<path d="M0 10.8462C0 4.85599 4.85599 0 10.8462 0H31.1538C37.144 0 42 4.85599 42 10.8462V26C42 37.598 32.598 47 21 47C9.40202 47 0 37.598 0 26V10.8462Z" fill="#343264"/>
</mask>
<g mask="url(#mask0)">
<path d="M0 11.0463C0 5.05618 4.85599 0.200195 10.8462 0.200195H31.1538C37.144 0.200195 42 5.05618 42 11.0463V26.2002C42 37.7982 32.598 47.2002 21 47.2002C9.40202 47.2002 0 37.7982 0 26.2002V11.0463Z" fill="#343264"/>
<path fill-rule="evenodd" clip-rule="evenodd" d="M9.07064 13.2737C7.73534 9.50445 3.60493 7.51561 -0.177891 8.82953C-3.97515 10.1485 -5.98423 14.296 -4.66529 18.0932L0.0961756 31.8016L0.110166 31.8428L0.51328 33.0034L0.550381 33.1093L0.555478 33.124C0.571235 33.1694 0.587397 33.2145 0.603957 33.2593C4.65909 44.4845 17.1331 50.3458 28.4393 46.4187C37.3263 43.3319 42.9887 34.9839 43.0435 26.068C42.6531 31.8039 39.0246 36.976 33.393 38.932C26.6363 41.2789 19.2725 38.2058 15.8146 31.9847C15.4804 31.4827 15.2036 30.9306 14.9965 30.3344L14.5987 29.1889L14.5986 29.1889L9.07064 13.2737ZM42.097 19.6377C42.1113 19.6759 42.1254 19.7143 42.1394 19.7527C42.1269 19.7139 42.114 19.6751 42.1008 19.6364L42.097 19.6377ZM42.0975 19.6268C42.0944 19.6179 42.0914 19.609 42.0883 19.6001L39.6142 12.4771C39.6111 12.4683 39.608 12.4594 39.6049 12.4505L42.0975 19.6268Z" fill="#C4C4C4"/>
<path fill-rule="evenodd" clip-rule="evenodd" d="M9.07064 13.2737C7.73534 9.50445 3.60493 7.51561 -0.177891 8.82953C-3.97515 10.1485 -5.98423 14.296 -4.66529 18.0932L0.0961756 31.8016L0.110166 31.8428L0.51328 33.0034L0.550381 33.1093L0.555478 33.124C0.571235 33.1694 0.587397 33.2145 0.603957 33.2593C4.65909 44.4845 17.1331 50.3458 28.4393 46.4187C37.3263 43.3319 42.9887 34.9839 43.0435 26.068C42.6531 31.8039 39.0246 36.976 33.393 38.932C26.6363 41.2789 19.2725 38.2058 15.8146 31.9847C15.4804 31.4827 15.2036 30.9306 14.9965 30.3344L14.5987 29.1889L14.5986 29.1889L9.07064 13.2737ZM42.097 19.6377C42.1113 19.6759 42.1254 19.7143 42.1394 19.7527C42.1269 19.7139 42.114 19.6751 42.1008 19.6364L42.097 19.6377ZM42.0975 19.6268C42.0944 19.6179 42.0914 19.609 42.0883 19.6001L39.6142 12.4771C39.6111 12.4683 39.608 12.4594 39.6049 12.4505L42.0975 19.6268Z" fill="url(#paint0_linear)"/>
<path fill-rule="evenodd" clip-rule="evenodd" d="M43.3509 26.6539C43.3968 24.407 43.0587 22.1148 42.2934 19.866C42.2861 19.8442 42.2787 19.8225 42.2711 19.8008L42.2709 19.8002L42.2519 19.7451L42.2428 19.7193L40.3765 14.3462C39.0576 10.5489 34.9101 8.53984 31.1128 9.85877C27.3289 11.1731 25.3206 15.2962 26.6117 19.0825L28.8978 25.6642C30.2167 29.4614 28.2076 33.6089 24.4104 34.9279C20.6131 36.2468 16.4656 34.2377 15.1467 30.4405L13.3184 25.1768L13.3183 25.1768L10.6719 17.5575C10.5328 17.1571 10.3622 16.7765 10.1639 16.4176L14.9544 30.2094C14.9728 30.2648 14.9916 30.3201 15.0108 30.3753C17.5307 37.6302 25.7728 41.3581 33.42 38.7019C39.0125 36.7594 42.7381 31.9406 43.3509 26.6539Z" fill="#C4C4C4"/>
<path fill-rule="evenodd" clip-rule="evenodd" d="M43.3509 26.6539C43.3968 24.407 43.0587 22.1148 42.2934 19.866C42.2861 19.8442 42.2787 19.8225 42.2711 19.8008L42.2709 19.8002L42.2519 19.7451L42.2428 19.7193L40.3765 14.3462C39.0576 10.5489 34.9101 8.53984 31.1128 9.85877C27.3289 11.1731 25.3206 15.2962 26.6117 19.0825L28.8978 25.6642C30.2167 29.4614 28.2076 33.6089 24.4104 34.9279C20.6131 36.2468 16.4656 34.2377 15.1467 30.4405L13.3184 25.1768L13.3183 25.1768L10.6719 17.5575C10.5328 17.1571 10.3622 16.7765 10.1639 16.4176L14.9544 30.2094C14.9728 30.2648 14.9916 30.3201 15.0108 30.3753C17.5307 37.6302 25.7728 41.3581 33.42 38.7019C39.0125 36.7594 42.7381 31.9406 43.3509 26.6539Z" fill="url(#paint1_linear)"/>
<path fill-rule="evenodd" clip-rule="evenodd" d="M12.4575 22.6993L12.3564 22.7344L14.7171 29.5307L14.7179 29.5304C14.729 29.5632 14.7403 29.596 14.7517 29.6288C17.4905 37.5138 25.91 41.7526 33.5573 39.0965C38.6414 37.3305 42.1042 32.9616 43.0495 27.9143C43.2805 25.4803 43.0964 22.9776 42.4472 20.5052C42.3829 20.1908 42.2972 19.877 42.189 19.5656L41.99 18.9927L41.9606 18.9076L41.9465 18.8674L39.9595 13.1468L39.4075 13.3385C39.6876 22.6434 33.9637 31.4519 24.7045 34.668L24.7015 34.6593C24.5897 34.7044 24.4762 34.747 24.3611 34.787C20.5638 36.1059 16.4163 34.0968 15.0974 30.2996L12.4575 22.6993Z" fill="#C4C4C4"/>
<path fill-rule="evenodd" clip-rule="evenodd" d="M12.4575 22.6993L12.3564 22.7344L14.7171 29.5307L14.7179 29.5304C14.729 29.5632 14.7403 29.596 14.7517 29.6288C17.4905 37.5138 25.91 41.7526 33.5573 39.0965C38.6414 37.3305 42.1042 32.9616 43.0495 27.9143C43.2805 25.4803 43.0964 22.9776 42.4472 20.5052C42.3829 20.1908 42.2972 19.877 42.189 19.5656L41.99 18.9927L41.9606 18.9076L41.9465 18.8674L39.9595 13.1468L39.4075 13.3385C39.6876 22.6434 33.9637 31.4519 24.7045 34.668L24.7015 34.6593C24.5897 34.7044 24.4762 34.747 24.3611 34.787C20.5638 36.1059 16.4163 34.0968 15.0974 30.2996L12.4575 22.6993Z" fill="url(#paint2_linear)"/>
</g>
<defs>
<linearGradient id="paint0_linear" x1="-21.9495" y1="14.2392" x2="55.3916" y2="47.4066" gradientUnits="userSpaceOnUse">
<stop offset="0.0929257" stop-color="#6132E4"/>
<stop offset="0.944671" stop-color="#36F0D3"/>
</linearGradient>
<linearGradient id="paint1_linear" x1="11.9902" y1="25.3825" x2="44.7868" y2="21.9575" gradientUnits="userSpaceOnUse">
<stop offset="0.080854" stop-color="#6132E4"/>
<stop offset="1" stop-color="#36F0D3"/>
</linearGradient>
<linearGradient id="paint2_linear" x1="-0.676597" y1="37.52" x2="46.6741" y2="21.8757" gradientUnits="userSpaceOnUse">
<stop offset="0.080854" stop-color="#6132E4"/>
<stop offset="1" stop-color="#36F0D3"/>
</linearGradient>
</defs>
</svg>
