<svg width="280" height="313" viewBox="0 0 280 313" fill="none" xmlns="http://www.w3.org/2000/svg">
<g id="Group 10">
<mask id="mask0" mask-type="alpha" maskUnits="userSpaceOnUse" x="0" y="0" width="280" height="313">
<path id="Rectangle 42" d="M0 39.9544C0 17.8882 17.8882 0 39.9544 0H239.726C261.793 0 279.681 17.8882 279.681 39.9544V179.795C279.681 253.349 220.054 312.976 146.5 312.976H133.181C59.6274 312.976 0 253.349 0 179.795V39.9544Z" fill="#343264"/>
</mask>
<g mask="url(#mask0)">
<path id="Rectangle 43" d="M0 41.2859C0 19.2197 17.8882 1.33154 39.9544 1.33154H239.726C261.793 1.33154 279.681 19.2197 279.681 41.2859V181.126C279.681 254.68 220.054 314.308 146.5 314.308H133.181C59.6274 314.308 0 254.68 0 181.126V41.2859Z" fill="#343264"/>
<g id="Group 5">
<g id="Group 4">
<g id="Subtract">
<path fill-rule="evenodd" clip-rule="evenodd" d="M85.2482 159.923L60.5012 88.6754C51.7183 63.3892 24.0998 50.0106 -1.18638 58.7935C-26.4726 67.5764 -39.8512 95.1948 -31.0683 120.481L3.69716 220.572L3.72247 220.645L7.42839 231.314C31.5622 300.796 107.453 337.558 176.935 313.424L200.027 305.404C269.509 281.27 306.271 205.379 282.137 135.897L281.203 133.207C299.193 185.302 272.88 241.705 222.366 259.251C177.369 274.88 128.33 254.412 105.306 212.98C103.082 209.638 101.24 205.964 99.8625 201.997L98.0245 196.706L98.0017 196.64L97.979 196.574L97.2133 194.37L97.2131 194.37L85.2482 159.923ZM280.326 130.768C280.584 131.457 280.834 132.151 281.078 132.849L280.44 131.012L280.352 130.759L280.326 130.768Z" fill="#C4C4C4"/>
<path fill-rule="evenodd" clip-rule="evenodd" d="M85.2482 159.923L60.5012 88.6754C51.7183 63.3892 24.0998 50.0106 -1.18638 58.7935C-26.4726 67.5764 -39.8512 95.1948 -31.0683 120.481L3.69716 220.572L3.72247 220.645L7.42839 231.314C31.5622 300.796 107.453 337.558 176.935 313.424L200.027 305.404C269.509 281.27 306.271 205.379 282.137 135.897L281.203 133.207C299.193 185.302 272.88 241.705 222.366 259.251C177.369 274.88 128.33 254.412 105.306 212.98C103.082 209.638 101.24 205.964 99.8625 201.997L98.0245 196.706L98.0017 196.64L97.979 196.574L97.2133 194.37L97.2131 194.37L85.2482 159.923ZM280.326 130.768C280.584 131.457 280.834 132.151 281.078 132.849L280.44 131.012L280.352 130.759L280.326 130.768Z" fill="url(#paint0_linear)"/>
</g>
<g id="Intersect">
<path fill-rule="evenodd" clip-rule="evenodd" d="M288.676 177.499C288.974 162.985 286.865 148.186 282.088 133.643C281.951 133.211 281.808 132.78 281.658 132.349L281.447 131.74L281.358 131.482L281.315 131.362L268.699 95.0384C260.011 70.0249 232.69 56.7906 207.677 65.4788L206.689 65.8218C181.723 74.4936 168.491 101.728 177.08 126.703L192.432 170.899C201.214 196.185 187.836 223.804 162.55 232.586C137.263 241.369 109.645 227.991 100.862 202.704L88.687 167.652L88.6869 167.652L71.0636 116.914C70.133 114.235 68.9909 111.689 67.6625 109.29L99.7492 201.668L99.7502 201.668C99.8187 201.87 99.8879 202.071 99.9579 202.273C116.738 250.583 171.623 275.407 222.546 257.719C259.784 244.785 284.592 212.7 288.676 177.499Z" fill="#C4C4C4"/>
<path fill-rule="evenodd" clip-rule="evenodd" d="M288.676 177.499C288.974 162.985 286.865 148.186 282.088 133.643C281.951 133.211 281.808 132.78 281.658 132.349L281.447 131.74L281.358 131.482L281.315 131.362L268.699 95.0384C260.011 70.0249 232.69 56.7906 207.677 65.4788L206.689 65.8218C181.723 74.4936 168.491 101.728 177.08 126.703L192.432 170.899C201.214 196.185 187.836 223.804 162.55 232.586C137.263 241.369 109.645 227.991 100.862 202.704L88.687 167.652L88.6869 167.652L71.0636 116.914C70.133 114.235 68.9909 111.689 67.6625 109.29L99.7492 201.668L99.7502 201.668C99.8187 201.87 99.8879 202.071 99.9579 202.273C116.738 250.583 171.623 275.407 222.546 257.719C259.784 244.785 284.592 212.7 288.676 177.499Z" fill="url(#paint1_linear)"/>
</g>
<g id="Intersect_2">
<path fill-rule="evenodd" clip-rule="evenodd" d="M82.955 151.149L82.282 151.382L98.0016 196.64L98.0043 196.639C98.0787 196.857 98.1539 197.076 98.2298 197.295C116.467 249.802 172.534 278.028 223.457 260.34C268.816 244.585 294.795 197.717 287.044 150.557C285.933 145.573 284.525 140.602 282.81 135.662L281.131 130.829L281.113 130.777L278.674 123.754L266.094 87.5372L262.418 88.814C264.284 150.777 226.169 209.435 164.51 230.852L164.49 230.795C163.745 231.095 162.99 231.379 162.223 231.645C136.937 240.428 109.318 227.049 100.535 201.763L82.955 151.149Z" fill="#C4C4C4"/>
<path fill-rule="evenodd" clip-rule="evenodd" d="M82.955 151.149L82.282 151.382L98.0016 196.64L98.0043 196.639C98.0787 196.857 98.1539 197.076 98.2298 197.295C116.467 249.802 172.534 278.028 223.457 260.34C268.816 244.585 294.795 197.717 287.044 150.557C285.933 145.573 284.525 140.602 282.81 135.662L281.131 130.829L281.113 130.777L278.674 123.754L266.094 87.5372L262.418 88.814C264.284 150.777 226.169 209.435 164.51 230.852L164.49 230.795C163.745 231.095 162.99 231.379 162.223 231.645C136.937 240.428 109.318 227.049 100.535 201.763L82.955 151.149Z" fill="url(#paint2_linear)"/>
</g>
</g>
</g>
</g>
</g>
<defs>
<linearGradient id="paint0_linear" x1="-146.163" y1="94.816" x2="368.856" y2="315.679" gradientUnits="userSpaceOnUse">
<stop offset="0.0929257" stop-color="#6132E4"/>
<stop offset="0.944671" stop-color="#36F0D3"/>
</linearGradient>
<linearGradient id="paint1_linear" x1="79.8342" y1="168.998" x2="298.231" y2="146.18" gradientUnits="userSpaceOnUse">
<stop offset="0.080854" stop-color="#6132E4"/>
<stop offset="1" stop-color="#36F0D3"/>
</linearGradient>
<linearGradient id="paint2_linear" x1="-4.50566" y1="249.841" x2="310.806" y2="145.665" gradientUnits="userSpaceOnUse">
<stop offset="0.080854" stop-color="#6132E4"/>
<stop offset="1" stop-color="#36F0D3"/>
</linearGradient>
</defs>
</svg>
