<svg width="97" height="35" viewBox="0 0 97 35" fill="none" xmlns="http://www.w3.org/2000/svg">
<path d="M15.0296 8.0698C15.6124 8.0698 16.0686 8.23452 16.398 8.56397C16.7528 8.89341 16.9302 9.34956 16.9302 9.93241V25.4035C16.9302 25.9357 16.7528 26.3665 16.398 26.6959C16.0432 27.0253 15.5744 27.1901 14.9916 27.1901C14.4594 27.1901 14.0286 27.038 13.6991 26.7339C13.3697 26.4045 13.205 25.9737 13.205 25.4415V23.997C12.6221 25.0614 11.8112 25.8723 10.7722 26.4298C9.75852 26.9873 8.61814 27.2661 7.35106 27.2661C2.84025 27.2661 0.584846 24.7826 0.584846 19.8156V9.93241C0.584846 9.34956 0.749567 8.89341 1.07901 8.56397C1.43379 8.23452 1.91528 8.0698 2.52348 8.0698C3.10634 8.0698 3.56249 8.23452 3.89193 8.56397C4.24671 8.89341 4.4241 9.34956 4.4241 9.93241V19.7776C4.4241 21.2728 4.7282 22.3752 5.3364 23.0847C5.9446 23.7943 6.88224 24.1491 8.14932 24.1491C9.64448 24.1491 10.8355 23.6676 11.7225 22.7046C12.6348 21.7416 13.0909 20.4619 13.0909 18.8653V9.93241C13.0909 9.3749 13.2683 8.93142 13.6231 8.60198C13.9779 8.2472 14.4467 8.0698 15.0296 8.0698ZM37.6597 8.0698C38.2426 8.0698 38.6988 8.2472 39.0282 8.60198C39.383 8.93142 39.5604 9.3749 39.5604 9.93241V25.5175C39.5604 28.3558 38.8001 30.4971 37.2796 31.9416C35.7845 33.3861 33.5671 34.1083 30.6274 34.1083C27.8905 34.1083 25.6098 33.5888 23.7852 32.5498C22.8476 32.0176 22.3787 31.3841 22.3787 30.6492C22.3787 30.2184 22.4928 29.8636 22.7209 29.5848C22.9743 29.3061 23.2784 29.1667 23.6332 29.1667C23.9626 29.1667 24.4821 29.3568 25.1917 29.7369C26.104 30.1677 26.9529 30.4971 27.7385 30.7252C28.5241 30.9786 29.4617 31.1053 30.5514 31.1053C34.0486 31.1053 35.7971 29.3441 35.7971 25.8216V22.8947C35.265 24.0097 34.454 24.884 33.3643 25.5175C32.2746 26.1257 31.0076 26.4298 29.5631 26.4298C27.9412 26.4298 26.4968 26.0497 25.2297 25.2894C23.9626 24.5292 22.9743 23.4522 22.2647 22.0584C21.5805 20.6646 21.2384 19.0554 21.2384 17.2308C21.2384 15.4062 21.5932 13.797 22.3027 12.4032C23.0123 11.0094 23.9879 9.93241 25.2297 9.17217C26.4968 8.38658 27.9412 7.99378 29.5631 7.99378C30.9822 7.99378 32.224 8.29788 33.2883 8.90608C34.378 9.51428 35.2016 10.3759 35.7591 11.4909V9.8944C35.7591 9.33689 35.9238 8.89341 36.2533 8.56397C36.6081 8.23452 37.0769 8.0698 37.6597 8.0698ZM30.4754 23.3888C32.1226 23.3888 33.415 22.844 34.3527 21.7543C35.2903 20.6646 35.7591 19.1568 35.7591 17.2308C35.7591 15.3302 35.2903 13.835 34.3527 12.7453C33.4404 11.6303 32.1479 11.0728 30.4754 11.0728C28.8028 11.0728 27.4851 11.6176 26.5221 12.7073C25.5845 13.797 25.1156 15.3048 25.1156 17.2308C25.1156 19.1568 25.5971 20.6646 26.5601 21.7543C27.5231 22.844 28.8282 23.3888 30.4754 23.3888ZM54.6409 8.0698C55.8573 7.99378 56.4655 8.51328 56.4655 9.62831C56.4655 10.1858 56.3261 10.604 56.0474 10.8827C55.7686 11.1615 55.2871 11.3262 54.6029 11.3769L53.4625 11.4909C51.866 11.643 50.6749 12.2005 49.8894 13.1635C49.1291 14.1265 48.749 15.2922 48.749 16.6606V25.3655C48.749 25.9737 48.5716 26.4298 48.2168 26.7339C47.862 27.038 47.4059 27.1901 46.8484 27.1901C46.2908 27.1901 45.822 27.038 45.4419 26.7339C45.0871 26.4298 44.9097 25.9737 44.9097 25.3655V9.8944C44.9097 9.31154 45.0871 8.86807 45.4419 8.56397C45.822 8.23452 46.2908 8.0698 46.8484 8.0698C47.3552 8.0698 47.7733 8.23452 48.1028 8.56397C48.4576 8.86807 48.6349 9.29887 48.6349 9.85639V11.681C49.1418 10.566 49.8767 9.71701 50.8397 9.13415C51.8026 8.55129 52.8923 8.20918 54.1087 8.10782L54.6409 8.0698ZM66.5115 7.99378C68.9696 7.99378 70.7942 8.61465 71.9853 9.85639C73.2017 11.0981 73.8099 12.9861 73.8099 15.5202V25.3655C73.8099 25.9483 73.6452 26.4045 73.3157 26.7339C72.9863 27.038 72.5301 27.1901 71.9473 27.1901C71.3897 27.1901 70.9463 27.0253 70.6168 26.6959C70.2874 26.3665 70.1227 25.923 70.1227 25.3655V23.959C69.6412 25.0234 68.9189 25.847 67.956 26.4298C67.0183 26.9873 65.916 27.2661 64.6489 27.2661C63.4325 27.2661 62.3174 27.0253 61.3038 26.5439C60.3155 26.037 59.5299 25.3528 58.947 24.4912C58.3642 23.6296 58.0727 22.6539 58.0727 21.5642C58.0474 20.1958 58.3895 19.1314 59.0991 18.3712C59.8086 17.5856 60.9617 17.0281 62.5582 16.6986C64.1547 16.3438 66.3721 16.1665 69.2104 16.1665H70.0847V15.0641C70.0847 13.645 69.7932 12.6186 69.2104 11.9851C68.6275 11.3515 67.6899 11.0348 66.3974 11.0348C65.5105 11.0348 64.6742 11.1488 63.8886 11.3769C63.103 11.605 62.2414 11.9344 61.3038 12.3652C60.6196 12.7453 60.1381 12.9354 59.8593 12.9354C59.4792 12.9354 59.1624 12.796 58.909 12.5173C58.6809 12.2385 58.5669 11.8837 58.5669 11.4529C58.5669 11.0728 58.6683 10.7433 58.871 10.4646C59.0991 10.1605 59.4538 9.86906 59.9353 9.5903C60.8223 9.10881 61.8613 8.72869 63.0524 8.44993C64.2434 8.14583 65.3965 7.99378 66.5115 7.99378ZM65.3331 24.4152C66.7269 24.4152 67.8673 23.9463 68.7542 23.0087C69.6412 22.0457 70.0847 20.8166 70.0847 19.3215V18.3332H69.4004C67.4238 18.3332 65.9033 18.4219 64.8389 18.5993C63.7746 18.7766 63.0143 19.0807 62.5582 19.5115C62.102 19.917 61.874 20.5125 61.874 21.2981C61.874 22.2104 62.2034 22.958 62.8623 23.5409C63.5212 24.1237 64.3448 24.4152 65.3331 24.4152ZM94.2285 0.0111663C94.8113 0.0111663 95.2802 0.175887 95.635 0.505328C95.9897 0.83477 96.1671 1.27825 96.1671 1.83576V25.3275C96.1671 25.9103 95.9897 26.3665 95.635 26.6959C95.3055 27.0253 94.8494 27.1901 94.2665 27.1901C93.6836 27.1901 93.2148 27.0253 92.86 26.6959C92.5306 26.3665 92.3659 25.9103 92.3659 25.3275V23.807C91.8084 24.922 90.9974 25.7836 89.9331 26.3918C88.8687 26.9747 87.6397 27.2661 86.2459 27.2661C84.6494 27.2661 83.2176 26.8606 81.9505 26.0497C80.7087 25.2388 79.7331 24.0984 79.0235 22.6286C78.3393 21.1588 77.9972 19.4735 77.9972 17.5729C77.9972 15.647 78.3393 13.9617 79.0235 12.5173C79.7331 11.0728 80.7087 9.95776 81.9505 9.17217C83.1922 8.38658 84.624 7.99378 86.2459 7.99378C87.6397 7.99378 88.8561 8.29788 89.8951 8.90608C90.9594 9.48894 91.7704 10.3252 92.3279 11.4149V1.75974C92.3279 1.22756 92.4926 0.809427 92.822 0.505328C93.1768 0.175887 93.6456 0.0111663 94.2285 0.0111663ZM87.1582 24.2251C88.8054 24.2251 90.0851 23.6549 90.9974 22.5145C91.9097 21.3742 92.3659 19.7523 92.3659 17.6489C92.3659 15.5456 91.9097 13.9237 90.9974 12.7833C90.1105 11.643 88.8307 11.0728 87.1582 11.0728C85.4856 11.0728 84.1805 11.643 83.2429 12.7833C82.3306 13.8984 81.8744 15.4949 81.8744 17.5729C81.8744 19.6509 82.3433 21.2855 83.2809 22.4765C84.2185 23.6422 85.511 24.2251 87.1582 24.2251Z" fill="black"/>
</svg>
