<?xml version="1.0" encoding="utf-8"?>
<!-- Generator: Adobe Illustrator 23.0.6, SVG Export Plug-In . SVG Version: 6.00 Build 0)  -->
<svg version="1.1" id="Layer_1" xmlns="http://www.w3.org/2000/svg" xmlns:xlink="http://www.w3.org/1999/xlink" x="0px" y="0px"
	 viewBox="0 0 210 235" style="enable-background:new 0 0 210 235;" xml:space="preserve">
<style type="text/css">
	.st0{clip-path:url(#SVGID_2_);}
	.st1{fill:#343264;}
	.st2{fill-rule:evenodd;clip-rule:evenodd;fill:#C4C4C4;}
	.st3{fill-rule:evenodd;clip-rule:evenodd;fill:url(#SVGID_3_);}
	.st4{fill-rule:evenodd;clip-rule:evenodd;fill:url(#SVGID_4_);}
	.st5{fill-rule:evenodd;clip-rule:evenodd;fill:url(#SVGID_5_);}
</style>
<g>
	<defs>
		<path id="SVGID_1_" d="M-0.6,30.3c0-16.6,13.4-30,30-30h150c16.6,0,30,13.4,30,30v105c0,55.2-44.8,100-100,100h-10
			c-55.2,0-100-44.8-100-100V30.3z"/>
	</defs>
	<clipPath id="SVGID_2_">
		<use xlink:href="#SVGID_1_"  style="overflow:visible;"/>
	</clipPath>
	<g class="st0">
		<path class="st1" d="M0,30.3c0-16.6,13.4-30,30-30h150c16.6,0,30,13.4,30,30v105c0,55.2-44.8,100-100,100h-10
			c-55.2,0-100-44.8-100-100V30.3z"/>
		<path class="st2" d="M45.4,65.8c-6.6-18.9-27.3-29-46.3-22.4c-19,6.6-29,27.3-22.4,46.3l23.2,66.7l0,0L5.6,173
			c18.1,52.2,75.1,79.8,127.3,61.7l17.3-6c52.2-18.1,79.8-75.1,61.7-127.3l-0.7-2.1c13.6,39.1-6.2,81.5-44.2,94.7
			c-33.8,11.7-70.6-3.6-87.9-34.7c-1.7-2.5-3.1-5.3-4.1-8.2l-1.4-4l0-0.1l0-0.1l-0.6-1.6h0L45.4,65.8z M210.5,97.5
			c0.2,0.5,0.4,1.1,0.6,1.6L210.5,97.5L210.5,97.5z"/>
		
			<linearGradient id="SVGID_3_" gradientUnits="userSpaceOnUse" x1="-105.815" y1="174.7427" x2="280.89" y2="8.9073" gradientTransform="matrix(1 0 0 -1 0 236)">
			<stop  offset="9.292570e-02" style="stop-color:#6132E4"/>
			<stop  offset="0.9447" style="stop-color:#36F0D3"/>
		</linearGradient>
		<path class="st3" d="M45.4,65.8c-6.6-18.9-27.3-29-46.3-22.4c-19,6.6-29,27.3-22.4,46.3l23.2,66.7l0,0L5.6,173
			c18.1,52.2,75.1,79.8,127.3,61.7l17.3-6c52.2-18.1,79.8-75.1,61.7-127.3l-0.7-2.1c13.6,39.1-6.2,81.5-44.2,94.7
			c-33.8,11.7-70.6-3.6-87.9-34.7c-1.7-2.5-3.1-5.3-4.1-8.2l-1.4-4l0-0.1l0-0.1l-0.6-1.6h0L45.4,65.8z M210.5,97.5
			c0.2,0.5,0.4,1.1,0.6,1.6L210.5,97.5L210.5,97.5z"/>
		<path class="st2" d="M216.7,132.6c0.2-10.9-1.4-22-4.9-32.9c-0.1-0.3-0.2-0.7-0.3-1l-0.2-0.7l-9.5-27.4
			c-6.5-18.8-27-28.7-45.8-22.2l-0.7,0.3c-18.8,6.5-28.7,27-22.2,45.8l2.3,6.8l9.1,26.3c6.6,19-3.5,39.7-22.4,46.3
			c-19,6.6-39.7-3.5-46.3-22.4l-9.1-26.3L53.3,87.1l0,0c-0.7-2-1.6-3.9-2.5-5.7l24.1,69.4l0,0c0.1,0.2,0.1,0.3,0.2,0.5
			c12.6,36.3,53.8,54.9,92,41.6C195,183.1,213.7,159,216.7,132.6z"/>
		
			<linearGradient id="SVGID_4_" gradientUnits="userSpaceOnUse" x1="60.5017" y1="104.2773" x2="224.4856" y2="121.4123" gradientTransform="matrix(1 0 0 -1 0 236)">
			<stop  offset="8.085400e-02" style="stop-color:#6132E4"/>
			<stop  offset="1" style="stop-color:#36F0D3"/>
		</linearGradient>
		<path class="st4" d="M216.7,132.6c0.2-10.9-1.4-22-4.9-32.9c-0.1-0.3-0.2-0.7-0.3-1l-0.2-0.7l-9.5-27.4
			c-6.5-18.8-27-28.7-45.8-22.2l-0.7,0.3c-18.8,6.5-28.7,27-22.2,45.8l2.3,6.8l9.1,26.3c6.6,19-3.5,39.7-22.4,46.3
			c-19,6.6-39.7-3.5-46.3-22.4l-9.1-26.3L53.3,87.1l0,0c-0.7-2-1.6-3.9-2.5-5.7l24.1,69.4l0,0c0.1,0.2,0.1,0.3,0.2,0.5
			c12.6,36.3,53.8,54.9,92,41.6C195,183.1,213.7,159,216.7,132.6z"/>
		<path class="st2" d="M62.3,112.8l2.2,6.4l11,31.6c6.6,19,27.3,29,46.3,22.4c0.6-0.2,1.1-0.4,1.7-0.6l0,0
			c46.3-16.1,74.9-60.1,73.5-106.6l2.8-1l9.4,27.2l0,0l1.8,5.3l1.3,3.7c1.3,3.7,2.3,7.4,3.2,11.2c5.8,35.4-13.7,70.6-47.7,82.4
			c-38.2,13.3-80.3-7.9-94-47.3c-0.1-0.2-0.1-0.3-0.2-0.5h0l-11.8-34L62.3,112.8z"/>
		
			<linearGradient id="SVGID_5_" gradientUnits="userSpaceOnUse" x1="-1.9584" y1="44.7457" x2="234.7946" y2="122.9677" gradientTransform="matrix(1 0 0 -1 0 236)">
			<stop  offset="8.085400e-02" style="stop-color:#6132E4"/>
			<stop  offset="1" style="stop-color:#36F0D3"/>
		</linearGradient>
		<path class="st5" d="M62.3,112.8l2.2,6.4l11,31.6c6.6,19,27.3,29,46.3,22.4c0.6-0.2,1.1-0.4,1.7-0.6l0,0
			c46.3-16.1,74.9-60.1,73.5-106.6l2.8-1l9.4,27.2l0,0l1.8,5.3l1.3,3.7c1.3,3.7,2.3,7.4,3.2,11.2c5.8,35.4-13.7,70.6-47.7,82.4
			c-38.2,13.3-80.3-7.9-94-47.3c-0.1-0.2-0.1-0.3-0.2-0.5h0l-11.8-34L62.3,112.8z"/>
	</g>
</g>
</svg>
